<?xml version="1.0" encoding="iso-8859-1"?>
<!-- Uploaded to: SVG Repo, www.svgrepo.com, Generator: SVG Repo Mixer Tools -->
<svg fill="#000000" height="800px" width="800px" version="1.1" id="Layer_1" xmlns="http://www.w3.org/2000/svg" xmlns:xlink="http://www.w3.org/1999/xlink" 
	 viewBox="0 0 475 475" xml:space="preserve">
<g transform="translate(0 -540.36)">
	<g>
		<g>
			<path d="M346.094,770.76h-217.2c-4.1,0-7.5,3.4-7.5,7.5s3.4,7.5,7.5,7.5h217.2c4.1,0,7.5-3.4,7.5-7.5
				S350.194,770.76,346.094,770.76z"/>
			<path d="M237.894,814.26c-15.6,0-28.4,12.8-28.4,28.4c0,15.6,12.7,28.4,28.4,28.4c15.2,0,27.7-12.8,27.7-28.4
				C265.594,827.06,253.194,814.26,237.894,814.26z M237.894,855.96c-7.5,0-13.4-5.9-13.4-13.4s5.9-13.4,13.4-13.4
				c6.9,0,12.7,6.2,12.7,13.4S244.794,855.96,237.894,855.96z"/>
			<path d="M238.594,741.86c7.1,0,14-2.7,19.3-7.9c0-0.1,0.1-0.2,0.2-0.3c10.6-11.6,10.1-29.4-1-39.8c-10.4-11.1-28.1-11.6-39.8-1
				c-0.1,0-0.2,0.1-0.3,0.2c-10.8,10.9-10.5,28.8,0.8,40.1C223.594,738.96,231.194,741.86,238.594,741.86z M227.594,703.76
				L227.594,703.76c5.6-5,14-4.8,18.7,0.5c0.2,0.2,0.3,0.3,0.5,0.5c5.2,4.7,5.4,13.1,0.4,18.7c-5,4.9-13.3,4.5-18.7-0.9
				c-2.7-2.7-4.2-6.2-4.3-9.9C224.094,709.26,225.294,706.06,227.594,703.76z"/>
			<path d="M472.894,667.86c2.8-3,2.8-7.6-0.1-10.5l-114.8-114.8c-1.4-1.4-3.3-2.2-5.3-2.2s-3.9,0.8-5.3,2.2
				c-6.1,6-14.4,9.4-23.4,9.4s-17.3-3.3-23.4-9.4c-1.4-1.4-3.3-2.2-5.3-2.2s-3.9,0.8-5.3,2.2l-287.8,287.8c-2.9,2.9-2.9,7.7,0,10.6
				c12.7,12.7,12.7,34.1,0,46.8c-2.9,2.9-2.9,7.7,0,10.6l114.8,114.8c2.9,2.9,7.6,2.9,10.5,0.1c13.3-12.6,34.3-12.7,46.9-0.1
				c1.5,1.5,3.4,2.2,5.3,2.2l0,0c1.9,0,3.8-0.7,5.3-2.2l287.8-287c2.9-2.9,2.9-7.5,0.1-10.5
				C460.094,702.26,460.094,681.26,472.894,667.86z M457.394,720.26l-278.1,277.4c-16.6-11.9-39.5-11.8-56.5,0.1l-105.1-105.1
				c11.9-16.7,11.9-39.9,0-56.7l278-278c8.1,5.9,17.9,9,28.3,9c10.4,0,20.2-3.2,28.3-9l105.1,105.1
				C445.294,680.26,445.294,703.16,457.394,720.26z"/>
			<path d="M374.394,630.26l-56.6,57.4c-2.9,2.9-2.8,7.7,0.1,10.6c1.5,1.5,3.4,2.2,5.3,2.2h0c2,0,3.9-0.8,5.3-2.3l56.6-57.4
				c2.9-2.9,2.8-7.7-0.1-10.6C382.094,627.26,377.294,627.36,374.394,630.26z"/>
			<path d="M147.394,858.26l-57.4,56.6c-3,2.9-3,7.7-0.1,10.6c1.4,1.5,3.4,2.2,5.3,2.2v0c1.9,0,3.8-0.7,5.3-2.1l57.4-56.6
				c3-2.9,3-7.7,0.1-10.6C155.094,855.36,150.294,855.36,147.394,858.26z"/>
		</g>
	</g>
</g>
</svg>