<!DOCTYPE svg PUBLIC "-//W3C//DTD SVG 1.1//EN" "http://www.w3.org/Graphics/SVG/1.1/DTD/svg11.dtd">
<!-- Uploaded to: SVG Repo, www.svgrepo.com, Transformed by: SVG Repo Mixer Tools -->
<svg fill="#00cc33" height="800px" width="800px" version="1.1" id="Layer_1" xmlns="http://www.w3.org/2000/svg" xmlns:xlink="http://www.w3.org/1999/xlink" viewBox="0 0 512 512" xml:space="preserve" stroke="#00cc33">
<g id="SVGRepo_bgCarrier" stroke-width="0"/>
<g id="SVGRepo_tracerCarrier" stroke-linecap="round" stroke-linejoin="round"/>
<g id="SVGRepo_iconCarrier"> <g> <g> <g> <path d="M273.402,129.533v-13.661h43.35V53.325h-34.804v27.744h-8.546V46.359C273.402,20.797,252.605,0,227.042,0 c-25.563,0-46.359,20.797-46.359,46.359h34.804c0-6.372,5.184-11.555,11.555-11.555s11.555,5.184,11.555,11.555v83.173H58.416 v344.503h56.655V512h34.804v-37.965h212.25V512h34.804v-37.965h56.655V129.533H273.402z M238.597,439.232H93.221V206.637 c12.053,17.509,26.895,33.13,43.927,45.975c29.816,22.486,64.592,35.795,101.45,38.981V439.232z M158.104,224.823 c-21.028-15.858-37.994-36.837-49.244-60.487h294.278c-11.25,23.65-28.216,44.628-49.244,60.487 c-28.383,21.407-62.235,32.722-97.895,32.722S186.487,246.23,158.104,224.823z M418.778,439.232H273.402V291.593 c36.858-3.187,71.635-16.495,101.45-38.981c17.032-12.845,31.875-28.466,43.927-45.975V439.232z"/> <circle cx="326.546" cy="356.327" r="17.365"/> <circle cx="185.449" cy="356.327" r="17.365"/> </g> </g> </g> </g>
</svg>